<svg xmlns="http://www.w3.org/2000/svg" xmlns:xlink="http://www.w3.org/1999/xlink" width="219.842" height="252.635" viewBox="0 0 219.842 252.635">
  <defs>
    <linearGradient id="linear-gradient" x1="1.182" y1="0.254" x2="0.45" y2="0.5" gradientUnits="objectBoundingBox">
      <stop offset="0" stop-opacity="0"/>
      <stop offset="0.97"/>
    </linearGradient>
    <linearGradient id="linear-gradient-2" x1="-0.038" y1="0.488" x2="5.186" y2="0.566" xlink:href="#linear-gradient"/>
    <linearGradient id="linear-gradient-3" x1="0.5" y1="-0.141" x2="0.5" y2="1.657" xlink:href="#linear-gradient"/>
    <linearGradient id="linear-gradient-4" x1="0.634" y1="-0.183" x2="-0.421" y2="5.478" xlink:href="#linear-gradient"/>
    <linearGradient id="linear-gradient-5" y1="0.5" x2="1" y2="0.5" gradientUnits="objectBoundingBox">
      <stop offset="0" stop-color="#ecc4d7"/>
      <stop offset="0.42" stop-color="#efd4d1"/>
      <stop offset="1" stop-color="#f2eac9"/>
    </linearGradient>
    <linearGradient id="linear-gradient-6" x1="-0.001" y1="0.5" x2="1" y2="0.5" xlink:href="#linear-gradient-5"/>
    <linearGradient id="linear-gradient-7" x1="0.46" y1="-0.659" x2="0.521" y2="1.109" gradientUnits="objectBoundingBox">
      <stop offset="0" stop-color="#fff" stop-opacity="0"/>
      <stop offset="0.84" stop-color="#fff" stop-opacity="0.839"/>
      <stop offset="0.97" stop-color="#fff"/>
    </linearGradient>
    <linearGradient id="linear-gradient-8" x1="0.407" y1="0.523" x2="1.376" y2="0.796" xlink:href="#linear-gradient-5"/>
    <linearGradient id="linear-gradient-9" x1="-0.815" y1="0.461" x2="7.054" y2="0.692" xlink:href="#linear-gradient"/>
    <linearGradient id="linear-gradient-10" x1="0.5" y1="-0.141" x2="0.5" y2="1.658" xlink:href="#linear-gradient"/>
    <linearGradient id="linear-gradient-11" x1="0.533" y1="0.913" x2="0.452" y2="-0.253" xlink:href="#linear-gradient-7"/>
    <linearGradient id="linear-gradient-12" x1="0.516" y1="0.685" x2="0.422" y2="-0.132" gradientUnits="objectBoundingBox">
      <stop offset="0" stop-color="#fff" stop-opacity="0"/>
      <stop offset="0.69" stop-color="#fff" stop-opacity="0.58"/>
      <stop offset="0.84" stop-color="#fff" stop-opacity="0.839"/>
      <stop offset="0.97" stop-color="#fff"/>
    </linearGradient>
    <linearGradient id="linear-gradient-13" x1="0.005" y1="0.5" x2="1.002" y2="0.5" xlink:href="#linear-gradient-5"/>
    <linearGradient id="linear-gradient-14" x1="1.716" y1="0.524" x2="-7.891" y2="0.307" xlink:href="#linear-gradient"/>
    <linearGradient id="linear-gradient-15" x1="2.145" y1="0.454" x2="-6.71" y2="0.782" xlink:href="#linear-gradient"/>
    <linearGradient id="linear-gradient-16" x1="0" y1="0.5" x2="1" y2="0.5" xlink:href="#linear-gradient"/>
    <linearGradient id="linear-gradient-17" x1="0.5" y1="-0.141" x2="0.5" y2="1.657" xlink:href="#linear-gradient"/>
    <linearGradient id="linear-gradient-18" x1="0.5" y1="-0.536" x2="0.5" y2="6.978" xlink:href="#linear-gradient"/>
    <linearGradient id="linear-gradient-19" x1="0.498" y1="-0.983" x2="0.509" y2="8.86" xlink:href="#linear-gradient"/>
    <linearGradient id="linear-gradient-20" x1="0.498" y1="-0.983" x2="0.509" y2="8.86" gradientUnits="objectBoundingBox">
      <stop offset="0" stop-color="#67d7f0" stop-opacity="0.38"/>
      <stop offset="0.97" stop-color="#68e1fd"/>
      <stop offset="1" stop-color="#68e1fd"/>
    </linearGradient>
  </defs>
  <g id="Group_3253" data-name="Group 3253" transform="translate(-98.079 -182)">
    <g id="Group_32" data-name="Group 32" transform="translate(98.063 182)">
      <path id="Path_171" data-name="Path 171" d="M95.205,60.084c-6.159,9.123-7.961,21.32-16.439,28.345-5.335,4.437-12.435,5.98-18.636,9.1-14.643,7.348-23.718,24.394-21.674,40.627.909,7.221,3.793,14.2,3.7,21.478-.153,10.512-6.471,19.978-8.045,30.379C31.885,204.742,39.423,219.232,48.578,231c5.425,6.967,11.9,13.687,20.316,16.375,6.93,2.2,14.405,1.421,21.658,1.854,15.034.887,29.206,6.989,43.87,10.449s31.414,3.851,43.358-5.33c5.478-4.226,9.609-10.227,15.763-13.386,4.781-2.451,10.29-2.926,15.62-3.592,14.627-1.817,30.416-6.312,38.561-18.594,5.922-8.933,6.6-20.39,5.24-31.018s-4.553-20.971-5.689-31.626c-2.6-24.452,5.721-49.089,3.111-73.536-1.157-10.766-4.7-21.748-12.556-29.206-10.311-9.815-25.709-11.621-39.935-12.039-16.8-.47-33.617.354-50.4,1.178C129.678,43.4,106.277,43.688,95.205,60.084Z" transform="translate(-33.7 -19.478)" fill="#68e1fd" opacity="0.25"/>
      <path id="Path_172" data-name="Path 172" d="M158.751,192.706l1.41-7.807s.449-1.875-.7-2.3-7.052-1.416-7.052-1.416-1.241.343-1.167,1.189S149,197.73,149,197.73s.048.438.745.861,5.948.924,5.948.924,1.49-.607,1.638-.924S158.751,192.706,158.751,192.706Z" transform="translate(-88.086 -85.511)" fill="#68e1fd"/>
      <path id="Path_173" data-name="Path 173" d="M158.751,192.706l1.41-7.807s.449-1.875-.7-2.3-7.052-1.416-7.052-1.416-1.241.343-1.167,1.189S149,197.73,149,197.73s.048.438.745.861,5.948.924,5.948.924,1.49-.607,1.638-.924S158.751,192.706,158.751,192.706Z" transform="translate(-88.086 -85.511)" fill="url(#linear-gradient)"/>
      <path id="Path_174" data-name="Path 174" d="M85.737,212.62s-12.149,15.065-13.37,27.754,6.814,25.588,6.814,25.588h6.555l-1.474-18.647Z" transform="translate(-51.875 -100.343)" fill="#68e1fd"/>
      <path id="Path_175" data-name="Path 175" d="M85.737,212.62s-12.149,15.065-13.37,27.754,6.814,25.588,6.814,25.588h6.555l-1.474-18.647Z" transform="translate(-51.875 -100.343)" fill="url(#linear-gradient-2)"/>
      <path id="Path_176" data-name="Path 176" d="M82.675,235.21s-6.651,9.651-5.6,21.251,5.42,16.375,5.42,16.375l1.421-3.872Z" transform="translate(-54.1 -111)" opacity="0.28" fill="url(#linear-gradient-3)"/>
      <path id="Path_177" data-name="Path 177" d="M157.567,192.226,159,184.419s.449-1.875-.7-2.3-7.057-1.416-7.057-1.416-1.236.343-1.162,1.189-2.277,15.345-2.277,15.345.048.438.745.861,5.948.924,5.948.924,1.484-.607,1.638-.924S157.567,192.226,157.567,192.226Z" transform="translate(-87.52 -85.284)" fill="#68e1fd"/>
      <path id="Path_178" data-name="Path 178" d="M157.686,192.287l1.22-6.74s.386-1.622-.607-1.991-6.091-1.226-6.091-1.226-1.056.3-1.009,1.03-1.949,13.275-1.949,13.275.042.375.644.745,5.14.792,5.14.792,1.284-.528,1.41-.792S157.686,192.287,157.686,192.287Z" transform="translate(-88.204 -86.053)" fill="url(#linear-gradient-4)"/>
      <path id="Path_179" data-name="Path 179" d="M85.783,397.655c.676,3.434.486,7.121,2.2,10.174,1.622.528,2.573-1.78,2.71-3.476l3.978-49.216c.333-4.115-3.5-7.316-7.4-4.8-3.576,2.3-2.594,8.325-2.583,11.848C84.721,374.038,81.684,376.811,85.783,397.655Z" transform="translate(-57.25 -164.892)" fill="url(#linear-gradient-5)"/>
      <path id="Path_180" data-name="Path 180" d="M111.082,397.527c.349,3.169.724,6.45,2.113,9.35.19.407.454.84.893.935.824.169,1.268-.924,1.373-1.754A366.538,366.538,0,0,0,118.4,363.08c0-2.847-.032-5.885-1.585-8.262s-6.761-4.041-8.922-1.521,0,10.644.28,13.671Q109.423,382.261,111.082,397.527Z" transform="translate(-68.245 -166.116)" fill="url(#linear-gradient-6)"/>
      <rect id="Rectangle_7" data-name="Rectangle 7" width="120.671" height="206.547" rx="46.19" transform="translate(86.882)" fill="#68e1fd"/>
      <rect id="Rectangle_8" data-name="Rectangle 8" width="108.358" height="185.465" rx="41.47" transform="translate(93.416 6.402)" fill="url(#linear-gradient-7)"/>
      <path id="Path_202" data-name="Path 202" d="M116.771,164.945c-.1,2.055-.481,10.565-2.081,11.88-1.49,1.2-4.02.6-5.171,2.113-1.056,1.426-1.141,3.555-1.41,5.314-.111.74-1.717-.85-2.308-.4-1.056.813-5.092,1.9-4.87.6a15.446,15.446,0,0,0,.137-5.082l-1.056-7.052a35.315,35.315,0,0,1-.528-9.741c.428-3.238,1.859-6.476,4.527-8.357,3.7-2.641,7.063-.444,9.355,2.831C115.44,160.012,116.93,161.554,116.771,164.945Z" transform="translate(-64.647 -72.239)" fill="url(#linear-gradient-8)"/>
      <path id="Path_203" data-name="Path 203" d="M86.161,144.219c-3.333,1.923-4.992,5.842-5.647,9.635s-.528,7.7-1.395,11.447-3.027,7.527-6.64,8.859a27.809,27.809,0,0,0,6.656,2.583,10.1,10.1,0,0,0,6.952-.787l-.306,1.442c2.451-.137,5.008-.3,7.115-1.558,2.784-1.664,4.226-4.886,5.024-8.024,1.447-5.668,1.373-11.621,1.231-17.432a10.1,10.1,0,0,0-.486-3.407C96.964,142.619,89.616,142.222,86.161,144.219Z" transform="translate(-51.987 -67.53)" fill="#25233a"/>
      <path id="Path_204" data-name="Path 204" d="M125.358,147.566a4.305,4.305,0,0,1,1.537,1.585,6.091,6.091,0,0,1,.491,2.24,16.957,16.957,0,0,1,.053,3.766,5.673,5.673,0,0,1-1.558,3.36,8.451,8.451,0,0,1-2.852,1.585l.391-1.833-2.113,1.9a2.2,2.2,0,0,1,.327-1.395l-2.013.961a24.526,24.526,0,0,0,.09-6.128c-.211-1.928-1.173-2.229-2.414-3.444-1.1-1.056-1.257-1.9.069-2.8C119.653,145.8,123.144,146.193,125.358,147.566Z" transform="translate(-72.716 -69.08)" fill="#25233a"/>
      <path id="Path_205" data-name="Path 205" d="M103.105,210.884c.951.666,1.8,1.479,2.747,2.15a5.208,5.208,0,0,1,1.585,1.4,43.317,43.317,0,0,1,1.8,6.518c.048,2.113-1.373-.238-1.4,1.886l-.428,28.794a7.257,7.257,0,0,1-.607,3.465c-.961,1.8-3.169,2.483-5.145,2.884a50.349,50.349,0,0,1-8.05.951,10.217,10.217,0,0,1-3.587-.333,7.579,7.579,0,0,1-4.442-4.638,20.426,20.426,0,0,1-1.056-6.518c-.528-10.755-.158-21.827,3.9-31.8.935-2.3,2.752-5.393,5.219-6.339C96.618,208.153,100.585,209.125,103.105,210.884Z" transform="translate(-57.579 -98.543)" fill="#68e1fd"/>
      <path id="Path_206" data-name="Path 206" d="M117.312,234.37s-1.49.354-1.986,6.4,2.874,27.717-1.785,28.731c0,0,4.353.46,6.191-1.69s1.585-13.254,1.585-13.254V233.43Z" transform="translate(-71.358 -110.16)" fill="url(#linear-gradient-9)"/>
      <path id="Path_207" data-name="Path 207" d="M110.49,327.65c-2.757-10.037-6.693-20.644-10.311-30.4a.259.259,0,0,1-.053.269c-.46.6-3.111,1.056-4.907,1.484H95.14l-.312.074c-5.388,1.331-8.309.877-13.666-.57-3.338,8.922-6.418,18.3-9.757,27.22a1.474,1.474,0,0,0-.127.909,1.432,1.432,0,0,0,.56.644l2.594,2c.248-.74.528-1.484.755-2.224-.122,2.192-1.479,5.668-1.585,7.86l.048.042a1.86,1.86,0,0,0,.8.433c1.7.465,4.49-.708,6,0,1.807.85,4.263,1.247,5.557-.269h0c-.386,1.2-.375,3.027.882,3.2a2.7,2.7,0,0,0,1.585-.528c2.467-1.352,5.462-1.014,8.278-1.056,2.546-.026,5.414-.618,6.92-2.562a1.421,1.421,0,0,0,1.02,1.321,3.877,3.877,0,0,0,2.567-.776,5.937,5.937,0,0,1,.761-.365,1.981,1.981,0,0,0,1.2-1.986,3.413,3.413,0,0,1,0-.465h0a1.025,1.025,0,0,0,1.875-.528A12.73,12.73,0,0,0,110.49,327.65Zm-6.423,5.848a.734.734,0,0,0-.317.317C103.613,333.646,103.9,333.35,104.067,333.5Zm-.185.38a2.983,2.983,0,0,0,.211-.354c.122.137-.053.349-.222.354Z" transform="translate(-51.41 -140.268)" fill="#68e1fd"/>
      <path id="Path_208" data-name="Path 208" d="M110.49,327.65c-2.757-10.037-6.693-20.644-10.311-30.4a.528.528,0,0,1-.053.269c-.4.887-3.048,1.093-4.907,1.484H95.14l-.312.074c-5.388,1.331-8.251.592-13.607-.856-3.338,8.932-6.476,18.6-9.815,27.521a1.474,1.474,0,0,0-.127.909,1.432,1.432,0,0,0,.56.644l2.594,2c.248-.74.528-1.484.755-2.224-.122,2.192-1.479,5.668-1.585,7.86l.048.042a3.645,3.645,0,0,0,.8.433c1.7.465,4.49-.708,6,0,1.859-.454,4.073,1.115,5.4-.1a1.585,1.585,0,0,0,.164-.164c-.386,1.2-.375,3.027.882,3.2a2.7,2.7,0,0,0,1.585-.528c2.467-1.352,5.462-1.014,8.278-1.056,2.546-.026,5.414-.618,6.92-2.562a1.421,1.421,0,0,0,1.02,1.321,3.877,3.877,0,0,0,2.567-.776,5.929,5.929,0,0,1,.761-.365,1.849,1.849,0,0,0,1.2-1.865,4.346,4.346,0,0,1,0-.586h0a1.025,1.025,0,0,0,1.875-.528A12.731,12.731,0,0,0,110.49,327.65Z" transform="translate(-51.41 -140.268)" fill="url(#linear-gradient-10)"/>
      <path id="Path_209" data-name="Path 209" d="M88.255,446.342c-.666,0-1.484,0-1.812.581a1.775,1.775,0,0,0-.116,1l.46,6.006a3.2,3.2,0,0,0,.813,2.3,2.382,2.382,0,0,0,1.384.465,7.475,7.475,0,0,0,3.275-.724,2.287,2.287,0,0,0,1.12-.792,2.371,2.371,0,0,0,.217-1.358c-.053-1.585-.137-3.2-.238-4.791-.063-1.014,0-2.932-1.178-3.217C91.155,445.565,89.406,446.352,88.255,446.342Z" transform="translate(-58.507 -210.33)" fill="#68e1fd"/>
      <path id="Path_210" data-name="Path 210" d="M113.746,447.314a21.314,21.314,0,0,0,.417,7.818,2.06,2.06,0,0,0,.354.835,1.954,1.954,0,0,0,1.585.528,9.841,9.841,0,0,0,3.6-.755,1.226,1.226,0,0,0,.528-.338,1.273,1.273,0,0,0,.153-.856l-.254-4.168c-.063-.988.153-2.588-.475-3.434-.528-.713-1.289-.671-2.113-.56A29,29,0,0,0,113.746,447.314Z" transform="translate(-71.368 -210.594)" fill="#68e1fd"/>
      <path id="Path_211" data-name="Path 211" d="M88.255,446.342c-.666,0-1.484,0-1.812.581a1.775,1.775,0,0,0-.116,1l.46,6.006a3.2,3.2,0,0,0,.813,2.3,2.382,2.382,0,0,0,1.384.465,7.475,7.475,0,0,0,3.275-.724,2.287,2.287,0,0,0,1.12-.792,2.371,2.371,0,0,0,.217-1.358c-.053-1.585-.137-3.2-.238-4.791-.063-1.014,0-2.932-1.178-3.217C91.155,445.565,89.406,446.352,88.255,446.342Z" transform="translate(-58.507 -210.33)" fill="url(#linear-gradient-11)"/>
      <path id="Path_212" data-name="Path 212" d="M113.746,447.314a21.314,21.314,0,0,0,.417,7.818,2.06,2.06,0,0,0,.354.835,1.954,1.954,0,0,0,1.585.528,9.841,9.841,0,0,0,3.6-.755,1.226,1.226,0,0,0,.528-.338,1.273,1.273,0,0,0,.153-.856l-.254-4.168c-.063-.988.153-2.588-.475-3.434-.528-.713-1.289-.671-2.113-.56A29,29,0,0,0,113.746,447.314Z" transform="translate(-71.368 -210.594)" fill="url(#linear-gradient-12)"/>
      <path id="Path_213" data-name="Path 213" d="M86.331,469.109a.941.941,0,0,0,.28.486.988.988,0,0,0,.423.148A22.3,22.3,0,0,0,97.9,469c1.3-.428,2.779-1.252,2.831-2.641a3.169,3.169,0,0,0-.813-1.965,9.551,9.551,0,0,0-5.425-3.381,3.111,3.111,0,0,0-2.372.238c-.349.232-.607.581-.946.829-1.31.977-3.571.1-4.691,1.262S85.867,467.688,86.331,469.109Z" transform="translate(-58.274 -217.462)" fill="#25233a"/>
      <path id="Path_214" data-name="Path 214" d="M112.613,467.543a2.6,2.6,0,0,0,.581,1.537,2.562,2.562,0,0,0,1.775.528,28.24,28.24,0,0,0,10.829-1.764,6.545,6.545,0,0,0,2.393-1.352,2.641,2.641,0,0,0,.808-2.514c-.306-1.083-1.437-1.69-2.472-2.145q-1.77-.787-3.592-1.453a5.42,5.42,0,0,0-2.087-.46c-1.363.063-2.4,1.056-3.634,1.474s-2.113.085-3.328.058C111.25,461.4,112.4,465.8,112.613,467.543Z" transform="translate(-70.716 -217.009)" fill="#25233a"/>
      <path id="Path_225" data-name="Path 225" d="M118.863,219.548c1.585-.354,2.9-1.12,3.449.417.9,2.52,2.763,8.182,4.437,10.85,1.585,2.509,3.338,4.886,4.485,6.365a1.21,1.21,0,0,0,2.055-.232l2.15-8.1,6.989,11.008S137.076,251.48,133.8,251.9c-5.5.745-15.467-17.96-15.467-17.96S109.967,221.5,118.863,219.548Z" transform="translate(-71.937 -103.372)" fill="#68e1fd"/>
      <path id="Path_226" data-name="Path 226" d="M153,221.035l.581-11.23L152,206.165s.444-1.358,1.585-.718,1.632,3.539,3.492,1.236a14.463,14.463,0,0,0,2.456-4.163s.37.074.444,1.484a18.964,18.964,0,0,1,0,2.308l.032,1.632a13.837,13.837,0,0,1-1.056,3.83c-.655,1-1.712,1-1.859,3.534s.259,12.572.259,12.572Z" transform="translate(-89.502 -95.578)" fill="url(#linear-gradient-13)"/>
      <path id="Path_251" data-name="Path 251" d="M42.009,334.048l5.145-21.938L38.66,334.27l2.594,2Z" transform="translate(-18.231 -147.241)" fill="url(#linear-gradient-14)"/>
      <path id="Path_252" data-name="Path 252" d="M51.69,342.377l6.55-28.847L56.92,343.391Z" transform="translate(-24.378 -147.911)" fill="url(#linear-gradient-15)"/>
      <path id="Path_253" data-name="Path 253" d="M135.8,337.467,127.62,309l6.223,31.288S136.4,339.543,135.8,337.467Z" transform="translate(-78 -145.811)" opacity="0.41" fill="url(#linear-gradient-16)"/>
      <path id="Path_254" data-name="Path 254" d="M120.93,313.6s6.128,25.387,6.17,28.308a7.393,7.393,0,0,1-4.379,2.324Z" transform="translate(-74.844 -147.981)" opacity="0.41" fill="url(#linear-gradient-17)"/>
      <path id="Path_255" data-name="Path 255" d="M99.1,208.278s4.907-1.315,8.278,0l1.685,2.573s-7.5-1.395-10.866-.528S99.1,208.278,99.1,208.278Z" transform="translate(-63.509 -98.019)" fill="#68e1fd"/>
      <path id="Path_256" data-name="Path 256" d="M99.1,208.278s4.907-1.315,8.278,0l1.685,2.573s-7.5-1.395-10.866-.528S99.1,208.278,99.1,208.278Z" transform="translate(-63.509 -98.019)" fill="url(#linear-gradient-18)"/>
      <rect id="Rectangle_9" data-name="Rectangle 9" width="27.87" height="5.531" rx="2.765" transform="translate(136.843 195.48)" fill="#68e1fd"/>
      <rect id="Rectangle_10" data-name="Rectangle 10" width="27.87" height="5.531" rx="2.765" transform="translate(136.843 195.48)" fill="url(#linear-gradient-19)"/>
      <path id="Path_257" data-name="Path 257" d="M293.5,36.3h-2.161v-.666a1.263,1.263,0,0,0-.085-.592.3.3,0,0,0-.275-.127.343.343,0,0,0-.317.174.956.956,0,0,0-.111.528,1.5,1.5,0,0,0,.121.676,1.775,1.775,0,0,0,.66.528,6.645,6.645,0,0,1,1.954,1.516,3.455,3.455,0,0,1,.407,1.907,3.343,3.343,0,0,1-.243,1.389,1.77,1.77,0,0,1-.861.761,3.418,3.418,0,0,1-1.495.306,3.328,3.328,0,0,1-1.585-.354,1.7,1.7,0,0,1-.861-.9,4.584,4.584,0,0,1-.206-1.553v-.565h2.16v1.088a1.475,1.475,0,0,0,.09.644.359.359,0,0,0,.322.148.386.386,0,0,0,.349-.185,1.056,1.056,0,0,0,.111-.528,1.648,1.648,0,0,0-.217-1.056,6.688,6.688,0,0,0-1.088-.813,9.994,9.994,0,0,1-1.146-.835,1.975,1.975,0,0,1-.47-.718,3.2,3.2,0,0,1-.185-1.167,3.264,3.264,0,0,1,.264-1.505,1.775,1.775,0,0,1,.85-.745,3.428,3.428,0,0,1,1.41-.264,3.7,3.7,0,0,1,1.548.291,1.632,1.632,0,0,1,.845.74,3.915,3.915,0,0,1,.206,1.511Z" transform="translate(-153.835 -15.792)" fill="#68e1fd"/>
      <path id="Path_258" data-name="Path 258" d="M308.952,33.77v8.948h-2.33V38.957h-.7v3.761h-2.33V33.77h2.33v3.2h.692v-3.2Z" transform="translate(-161.016 -15.968)" fill="#68e1fd"/>
      <path id="Path_259" data-name="Path 259" d="M324.531,38.844a14.427,14.427,0,0,1-.063,1.907,2.133,2.133,0,0,1-1.3,1.738,3.333,3.333,0,0,1-1.326.248,3.465,3.465,0,0,1-1.294-.232,2.155,2.155,0,0,1-1.331-1.727,19.3,19.3,0,0,1-.069-1.933V37.312a14.376,14.376,0,0,1,.063-1.907,2.155,2.155,0,0,1,1.3-1.738,3.227,3.227,0,0,1,1.326-.248,3.338,3.338,0,0,1,1.289.232,2.15,2.15,0,0,1,.919.7,2.113,2.113,0,0,1,.412,1.025,17.783,17.783,0,0,1,.069,1.933ZM322.207,35.9a2.948,2.948,0,0,0-.069-.8.28.28,0,0,0-.285-.174.317.317,0,0,0-.28.143,2.023,2.023,0,0,0-.1.829v4.163a4.127,4.127,0,0,0,.063.961.275.275,0,0,0,.3.185.285.285,0,0,0,.3-.211,4.224,4.224,0,0,0,.069-1Z" transform="translate(-168.355 -15.802)" fill="#68e1fd"/>
      <path id="Path_260" data-name="Path 260" d="M334.76,33.768h2.34a5.7,5.7,0,0,1,1.463.148,1.637,1.637,0,0,1,.771.433,1.49,1.49,0,0,1,.343.681,5.89,5.89,0,0,1,.1,1.241v.787a3.28,3.28,0,0,1-.18,1.252,1.22,1.22,0,0,1-.65.6,3.1,3.1,0,0,1-1.236.211h-.623v3.6H334.76Zm2.324,1.532v2.287h.174a.528.528,0,0,0,.444-.158,1.146,1.146,0,0,0,.122-.655v-.74a.861.861,0,0,0-.143-.6A.909.909,0,0,0,337.084,35.3Z" transform="translate(-175.721 -15.966)" fill="#68e1fd"/>
      <rect id="Rectangle_11" data-name="Rectangle 11" width="27.87" height="5.531" rx="2.765" transform="translate(136.843 175.48)" fill="url(#linear-gradient-20)"/>
    </g>
    <text id="_1" data-name="1" transform="translate(206 256)" fill="#68e1fd" font-size="27" font-family="SegoeUI, Segoe UI"><tspan x="0" y="0">1</tspan></text>
    <text id="_2" data-name="2" transform="translate(237 256)" fill="#68e1fd" font-size="27" font-family="SegoeUI, Segoe UI"><tspan x="0" y="0">2</tspan></text>
    <text id="_4" data-name="4" transform="translate(206 296)" fill="#68e1fd" font-size="27" font-family="SegoeUI, Segoe UI"><tspan x="0" y="0">4</tspan></text>
    <text id="_5" data-name="5" transform="translate(237 296)" fill="#68e1fd" font-size="27" font-family="SegoeUI, Segoe UI"><tspan x="0" y="0">5</tspan></text>
    <text id="_7" data-name="7" transform="translate(206 336)" fill="#68e1fd" font-size="27" font-family="SegoeUI, Segoe UI"><tspan x="0" y="0">7</tspan></text>
    <text id="_8" data-name="8" transform="translate(237 336)" fill="#68e1fd" font-size="27" font-family="SegoeUI, Segoe UI"><tspan x="0" y="0">8</tspan></text>
    <text id="_3" data-name="3" transform="translate(269 256)" fill="#68e1fd" font-size="27" font-family="SegoeUI, Segoe UI"><tspan x="0" y="0">3</tspan></text>
    <text id="_6" data-name="6" transform="translate(269 296)" fill="#68e1fd" font-size="27" font-family="SegoeUI, Segoe UI"><tspan x="0" y="0">6</tspan></text>
    <text id="_9" data-name="9" transform="translate(269 336)" fill="#68e1fd" font-size="27" font-family="SegoeUI, Segoe UI"><tspan x="0" y="0">9</tspan></text>
  </g>
</svg>
